<mxfile host="Electron" agent="Mozilla/5.0 (Macintosh; Intel Mac OS X 10_15_7) AppleWebKit/537.36 (KHTML, like Gecko) draw.io/27.0.5 Chrome/134.0.6998.205 Electron/35.3.0 Safari/537.36" version="27.0.5">
  <diagram name="Page-1" id="rhI5dGNUlKlRgCSTbsgW">
    <mxGraphModel dx="3000" dy="1145" grid="1" gridSize="10" guides="1" tooltips="1" connect="1" arrows="1" fold="1" page="1" pageScale="1" pageWidth="827" pageHeight="1169" math="0" shadow="0">
      <root>
        <mxCell id="0" />
        <mxCell id="1" parent="0" />
        <mxCell id="2ldw7R9c0aOPwso9EmDh-1" value="AWS Cloud" style="points=[[0,0],[0.25,0],[0.5,0],[0.75,0],[1,0],[1,0.25],[1,0.5],[1,0.75],[1,1],[0.75,1],[0.5,1],[0.25,1],[0,1],[0,0.75],[0,0.5],[0,0.25]];outlineConnect=0;gradientColor=none;html=1;whiteSpace=wrap;fontSize=12;fontStyle=0;container=1;pointerEvents=0;collapsible=0;recursiveResize=0;shape=mxgraph.aws4.group;grIcon=mxgraph.aws4.group_aws_cloud_alt;strokeColor=#232F3E;fillColor=none;verticalAlign=top;align=left;spacingLeft=30;fontColor=#232F3E;dashed=0;" vertex="1" parent="1">
          <mxGeometry x="-280" y="310" width="1250" height="840" as="geometry" />
        </mxCell>
        <mxCell id="2ldw7R9c0aOPwso9EmDh-2" value="United States (N. Virginia, us-east-1) Region" style="points=[[0,0],[0.25,0],[0.5,0],[0.75,0],[1,0],[1,0.25],[1,0.5],[1,0.75],[1,1],[0.75,1],[0.5,1],[0.25,1],[0,1],[0,0.75],[0,0.5],[0,0.25]];outlineConnect=0;gradientColor=none;html=1;whiteSpace=wrap;fontSize=12;fontStyle=0;container=1;pointerEvents=0;collapsible=0;recursiveResize=0;shape=mxgraph.aws4.group;grIcon=mxgraph.aws4.group_region;strokeColor=#00A4A6;fillColor=none;verticalAlign=top;align=left;spacingLeft=30;fontColor=#147EBA;dashed=1;" vertex="1" parent="2ldw7R9c0aOPwso9EmDh-1">
          <mxGeometry x="40" y="40" width="1190" height="790" as="geometry" />
        </mxCell>
        <mxCell id="2ldw7R9c0aOPwso9EmDh-3" value="Default VPC" style="points=[[0,0],[0.25,0],[0.5,0],[0.75,0],[1,0],[1,0.25],[1,0.5],[1,0.75],[1,1],[0.75,1],[0.5,1],[0.25,1],[0,1],[0,0.75],[0,0.5],[0,0.25]];outlineConnect=0;gradientColor=none;html=1;whiteSpace=wrap;fontSize=12;fontStyle=0;container=1;pointerEvents=0;collapsible=0;recursiveResize=0;shape=mxgraph.aws4.group;grIcon=mxgraph.aws4.group_vpc2;strokeColor=#8C4FFF;fillColor=none;verticalAlign=top;align=left;spacingLeft=30;fontColor=#AAB7B8;dashed=0;" vertex="1" parent="2ldw7R9c0aOPwso9EmDh-2">
          <mxGeometry x="40" y="40" width="1130" height="740" as="geometry" />
        </mxCell>
        <mxCell id="2ldw7R9c0aOPwso9EmDh-4" value="Product Manager Agent" style="sketch=0;points=[[0,0,0],[0.25,0,0],[0.5,0,0],[0.75,0,0],[1,0,0],[0,1,0],[0.25,1,0],[0.5,1,0],[0.75,1,0],[1,1,0],[0,0.25,0],[0,0.5,0],[0,0.75,0],[1,0.25,0],[1,0.5,0],[1,0.75,0]];outlineConnect=0;fontColor=#232F3E;fillColor=#01A88D;strokeColor=#ffffff;dashed=0;verticalLabelPosition=bottom;verticalAlign=top;align=center;html=1;fontSize=12;fontStyle=0;aspect=fixed;shape=mxgraph.aws4.resourceIcon;resIcon=mxgraph.aws4.bedrock;" vertex="1" parent="2ldw7R9c0aOPwso9EmDh-3">
          <mxGeometry x="120" y="295.25" width="78" height="78" as="geometry" />
        </mxCell>
        <mxCell id="2ldw7R9c0aOPwso9EmDh-9" value="Market Researcher Agent" style="sketch=0;points=[[0,0,0],[0.25,0,0],[0.5,0,0],[0.75,0,0],[1,0,0],[0,1,0],[0.25,1,0],[0.5,1,0],[0.75,1,0],[1,1,0],[0,0.25,0],[0,0.5,0],[0,0.75,0],[1,0.25,0],[1,0.5,0],[1,0.75,0]];outlineConnect=0;fontColor=#232F3E;fillColor=#01A88D;strokeColor=#ffffff;dashed=0;verticalLabelPosition=bottom;verticalAlign=top;align=center;html=1;fontSize=12;fontStyle=0;aspect=fixed;shape=mxgraph.aws4.resourceIcon;resIcon=mxgraph.aws4.bedrock;" vertex="1" parent="2ldw7R9c0aOPwso9EmDh-3">
          <mxGeometry x="320" y="100" width="78" height="78" as="geometry" />
        </mxCell>
        <mxCell id="2ldw7R9c0aOPwso9EmDh-15" value="" style="edgeStyle=orthogonalEdgeStyle;html=1;endArrow=block;elbow=vertical;startArrow=none;endFill=1;strokeColor=#545B64;rounded=0;entryX=0;entryY=0.5;entryDx=0;entryDy=0;entryPerimeter=0;exitX=1;exitY=0;exitDx=0;exitDy=0;exitPerimeter=0;" edge="1" parent="2ldw7R9c0aOPwso9EmDh-3" source="2ldw7R9c0aOPwso9EmDh-4" target="2ldw7R9c0aOPwso9EmDh-9">
          <mxGeometry width="100" relative="1" as="geometry">
            <mxPoint x="-187" y="204" as="sourcePoint" />
            <mxPoint x="140" y="204" as="targetPoint" />
          </mxGeometry>
        </mxCell>
        <mxCell id="2ldw7R9c0aOPwso9EmDh-18" value="Market Research KB" style="sketch=0;points=[[0,0,0],[0.25,0,0],[0.5,0,0],[0.75,0,0],[1,0,0],[0,1,0],[0.25,1,0],[0.5,1,0],[0.75,1,0],[1,1,0],[0,0.25,0],[0,0.5,0],[0,0.75,0],[1,0.25,0],[1,0.5,0],[1,0.75,0]];outlineConnect=0;fontColor=#232F3E;fillColor=#8C4FFF;strokeColor=#ffffff;dashed=0;verticalLabelPosition=bottom;verticalAlign=top;align=center;html=1;fontSize=12;fontStyle=0;aspect=fixed;shape=mxgraph.aws4.resourceIcon;resIcon=mxgraph.aws4.elasticsearch_service;" vertex="1" parent="2ldw7R9c0aOPwso9EmDh-3">
          <mxGeometry x="536" y="40" width="78" height="78" as="geometry" />
        </mxCell>
        <mxCell id="2ldw7R9c0aOPwso9EmDh-21" value="" style="edgeStyle=orthogonalEdgeStyle;html=1;endArrow=block;elbow=vertical;startArrow=none;endFill=1;strokeColor=#545B64;rounded=0;entryX=0;entryY=0.5;entryDx=0;entryDy=0;entryPerimeter=0;" edge="1" parent="2ldw7R9c0aOPwso9EmDh-3" source="2ldw7R9c0aOPwso9EmDh-9" target="2ldw7R9c0aOPwso9EmDh-18">
          <mxGeometry width="100" relative="1" as="geometry">
            <mxPoint x="179" y="165" as="sourcePoint" />
            <mxPoint x="330" y="149" as="targetPoint" />
          </mxGeometry>
        </mxCell>
        <mxCell id="2ldw7R9c0aOPwso9EmDh-23" value="Product Documentation Agent" style="sketch=0;points=[[0,0,0],[0.25,0,0],[0.5,0,0],[0.75,0,0],[1,0,0],[0,1,0],[0.25,1,0],[0.5,1,0],[0.75,1,0],[1,1,0],[0,0.25,0],[0,0.5,0],[0,0.75,0],[1,0.25,0],[1,0.5,0],[1,0.75,0]];outlineConnect=0;fontColor=#232F3E;fillColor=#01A88D;strokeColor=#ffffff;dashed=0;verticalLabelPosition=bottom;verticalAlign=top;align=center;html=1;fontSize=12;fontStyle=0;aspect=fixed;shape=mxgraph.aws4.resourceIcon;resIcon=mxgraph.aws4.bedrock;" vertex="1" parent="2ldw7R9c0aOPwso9EmDh-3">
          <mxGeometry x="320" y="610" width="78" height="78" as="geometry" />
        </mxCell>
        <mxCell id="2ldw7R9c0aOPwso9EmDh-26" value="Confluence KB" style="sketch=0;points=[[0,0,0],[0.25,0,0],[0.5,0,0],[0.75,0,0],[1,0,0],[0,1,0],[0.25,1,0],[0.5,1,0],[0.75,1,0],[1,1,0],[0,0.25,0],[0,0.5,0],[0,0.75,0],[1,0.25,0],[1,0.5,0],[1,0.75,0]];outlineConnect=0;fontColor=#232F3E;fillColor=#8C4FFF;strokeColor=#ffffff;dashed=0;verticalLabelPosition=bottom;verticalAlign=top;align=center;html=1;fontSize=12;fontStyle=0;aspect=fixed;shape=mxgraph.aws4.resourceIcon;resIcon=mxgraph.aws4.elasticsearch_service;" vertex="1" parent="2ldw7R9c0aOPwso9EmDh-3">
          <mxGeometry x="536" y="610" width="78" height="78" as="geometry" />
        </mxCell>
        <mxCell id="2ldw7R9c0aOPwso9EmDh-53" style="edgeStyle=orthogonalEdgeStyle;rounded=0;orthogonalLoop=1;jettySize=auto;html=1;exitX=1;exitY=0.5;exitDx=0;exitDy=0;exitPerimeter=0;entryX=0.5;entryY=0;entryDx=0;entryDy=0;entryPerimeter=0;" edge="1" parent="2ldw7R9c0aOPwso9EmDh-3" source="2ldw7R9c0aOPwso9EmDh-71" target="2ldw7R9c0aOPwso9EmDh-52">
          <mxGeometry relative="1" as="geometry">
            <mxPoint x="889" y="250" as="sourcePoint" />
            <mxPoint x="1039" y="249" as="targetPoint" />
          </mxGeometry>
        </mxCell>
        <mxCell id="2ldw7R9c0aOPwso9EmDh-8" value="Website Data Bucket" style="sketch=0;points=[[0,0,0],[0.25,0,0],[0.5,0,0],[0.75,0,0],[1,0,0],[0,1,0],[0.25,1,0],[0.5,1,0],[0.75,1,0],[1,1,0],[0,0.25,0],[0,0.5,0],[0,0.75,0],[1,0.25,0],[1,0.5,0],[1,0.75,0]];outlineConnect=0;fontColor=#232F3E;fillColor=#7AA116;strokeColor=#ffffff;dashed=0;verticalLabelPosition=bottom;verticalAlign=top;align=center;html=1;fontSize=12;fontStyle=0;aspect=fixed;shape=mxgraph.aws4.resourceIcon;resIcon=mxgraph.aws4.s3;" vertex="1" parent="2ldw7R9c0aOPwso9EmDh-3">
          <mxGeometry x="850" y="70" width="78" height="78" as="geometry" />
        </mxCell>
        <mxCell id="2ldw7R9c0aOPwso9EmDh-32" value="" style="edgeStyle=orthogonalEdgeStyle;html=1;endArrow=block;elbow=vertical;startArrow=none;endFill=1;strokeColor=#545B64;rounded=0;entryX=0;entryY=0.5;entryDx=0;entryDy=0;entryPerimeter=0;exitX=1;exitY=0.5;exitDx=0;exitDy=0;exitPerimeter=0;" edge="1" parent="2ldw7R9c0aOPwso9EmDh-3" source="2ldw7R9c0aOPwso9EmDh-23" target="2ldw7R9c0aOPwso9EmDh-26">
          <mxGeometry width="100" relative="1" as="geometry">
            <mxPoint x="408" y="279" as="sourcePoint" />
            <mxPoint x="530" y="279" as="targetPoint" />
          </mxGeometry>
        </mxCell>
        <mxCell id="2ldw7R9c0aOPwso9EmDh-36" value="" style="edgeStyle=orthogonalEdgeStyle;html=1;endArrow=block;elbow=vertical;startArrow=none;endFill=1;strokeColor=#545B64;rounded=0;entryX=0;entryY=0.5;entryDx=0;entryDy=0;entryPerimeter=0;exitX=1;exitY=0.75;exitDx=0;exitDy=0;exitPerimeter=0;" edge="1" parent="2ldw7R9c0aOPwso9EmDh-3" source="2ldw7R9c0aOPwso9EmDh-4" target="2ldw7R9c0aOPwso9EmDh-23">
          <mxGeometry width="100" relative="1" as="geometry">
            <mxPoint x="189" y="305" as="sourcePoint" />
            <mxPoint x="330" y="279" as="targetPoint" />
            <Array as="points">
              <mxPoint x="260" y="354" />
              <mxPoint x="260" y="650" />
              <mxPoint x="320" y="650" />
            </Array>
          </mxGeometry>
        </mxCell>
        <mxCell id="2ldw7R9c0aOPwso9EmDh-37" value="" style="edgeStyle=orthogonalEdgeStyle;html=1;endArrow=block;elbow=vertical;startArrow=none;endFill=1;strokeColor=#545B64;rounded=0;entryX=1;entryY=0.5;entryDx=0;entryDy=0;entryPerimeter=0;exitX=0;exitY=0.5;exitDx=0;exitDy=0;exitPerimeter=0;" edge="1" parent="2ldw7R9c0aOPwso9EmDh-3" source="2ldw7R9c0aOPwso9EmDh-8" target="2ldw7R9c0aOPwso9EmDh-18">
          <mxGeometry width="100" relative="1" as="geometry">
            <mxPoint x="408" y="149" as="sourcePoint" />
            <mxPoint x="530" y="149" as="targetPoint" />
          </mxGeometry>
        </mxCell>
        <mxCell id="2ldw7R9c0aOPwso9EmDh-42" value="Crawl4AI Lambda" style="sketch=0;points=[[0,0,0],[0.25,0,0],[0.5,0,0],[0.75,0,0],[1,0,0],[0,1,0],[0.25,1,0],[0.5,1,0],[0.75,1,0],[1,1,0],[0,0.25,0],[0,0.5,0],[0,0.75,0],[1,0.25,0],[1,0.5,0],[1,0.75,0]];outlineConnect=0;fontColor=#232F3E;fillColor=#ED7100;strokeColor=#ffffff;dashed=0;verticalLabelPosition=bottom;verticalAlign=top;align=center;html=1;fontSize=12;fontStyle=0;aspect=fixed;shape=mxgraph.aws4.resourceIcon;resIcon=mxgraph.aws4.lambda;" vertex="1" parent="2ldw7R9c0aOPwso9EmDh-3">
          <mxGeometry x="990" y="70" width="78" height="78" as="geometry" />
        </mxCell>
        <mxCell id="2ldw7R9c0aOPwso9EmDh-44" value="" style="edgeStyle=orthogonalEdgeStyle;html=1;endArrow=block;elbow=vertical;startArrow=none;endFill=1;strokeColor=#545B64;rounded=0;exitX=0;exitY=0.5;exitDx=0;exitDy=0;exitPerimeter=0;" edge="1" parent="2ldw7R9c0aOPwso9EmDh-3" source="2ldw7R9c0aOPwso9EmDh-42" target="2ldw7R9c0aOPwso9EmDh-8">
          <mxGeometry width="100" relative="1" as="geometry">
            <mxPoint x="720" y="149" as="sourcePoint" />
            <mxPoint x="608" y="149" as="targetPoint" />
          </mxGeometry>
        </mxCell>
        <mxCell id="2ldw7R9c0aOPwso9EmDh-41" value="Trends Neptune DB" style="sketch=0;points=[[0,0,0],[0.25,0,0],[0.5,0,0],[0.75,0,0],[1,0,0],[0,1,0],[0.25,1,0],[0.5,1,0],[0.75,1,0],[1,1,0],[0,0.25,0],[0,0.5,0],[0,0.75,0],[1,0.25,0],[1,0.5,0],[1,0.75,0]];outlineConnect=0;fontColor=#232F3E;fillColor=#C925D1;strokeColor=#ffffff;dashed=0;verticalLabelPosition=bottom;verticalAlign=top;align=center;html=1;fontSize=12;fontStyle=0;aspect=fixed;shape=mxgraph.aws4.resourceIcon;resIcon=mxgraph.aws4.neptune;" vertex="1" parent="2ldw7R9c0aOPwso9EmDh-3">
          <mxGeometry x="710" y="430" width="78" height="78" as="geometry" />
        </mxCell>
        <mxCell id="2ldw7R9c0aOPwso9EmDh-45" value="Market Trend KB" style="sketch=0;points=[[0,0,0],[0.25,0,0],[0.5,0,0],[0.75,0,0],[1,0,0],[0,1,0],[0.25,1,0],[0.5,1,0],[0.75,1,0],[1,1,0],[0,0.25,0],[0,0.5,0],[0,0.75,0],[1,0.25,0],[1,0.5,0],[1,0.75,0]];outlineConnect=0;fontColor=#232F3E;fillColor=#8C4FFF;strokeColor=#ffffff;dashed=0;verticalLabelPosition=bottom;verticalAlign=top;align=center;html=1;fontSize=12;fontStyle=0;aspect=fixed;shape=mxgraph.aws4.resourceIcon;resIcon=mxgraph.aws4.elasticsearch_service;" vertex="1" parent="2ldw7R9c0aOPwso9EmDh-3">
          <mxGeometry x="536" y="430" width="78" height="78" as="geometry" />
        </mxCell>
        <mxCell id="2ldw7R9c0aOPwso9EmDh-49" style="edgeStyle=orthogonalEdgeStyle;rounded=0;orthogonalLoop=1;jettySize=auto;html=1;exitX=0;exitY=0.5;exitDx=0;exitDy=0;exitPerimeter=0;entryX=1;entryY=0.5;entryDx=0;entryDy=0;entryPerimeter=0;" edge="1" parent="2ldw7R9c0aOPwso9EmDh-3" source="2ldw7R9c0aOPwso9EmDh-41" target="2ldw7R9c0aOPwso9EmDh-45">
          <mxGeometry relative="1" as="geometry" />
        </mxCell>
        <mxCell id="2ldw7R9c0aOPwso9EmDh-50" style="edgeStyle=orthogonalEdgeStyle;rounded=0;orthogonalLoop=1;jettySize=auto;html=1;exitX=0;exitY=0.5;exitDx=0;exitDy=0;exitPerimeter=0;entryX=1;entryY=0.5;entryDx=0;entryDy=0;entryPerimeter=0;" edge="1" parent="2ldw7R9c0aOPwso9EmDh-3" source="2ldw7R9c0aOPwso9EmDh-51" target="2ldw7R9c0aOPwso9EmDh-41">
          <mxGeometry relative="1" as="geometry">
            <mxPoint x="759" y="230" as="targetPoint" />
          </mxGeometry>
        </mxCell>
        <mxCell id="2ldw7R9c0aOPwso9EmDh-51" value="Trends Data Bucket" style="sketch=0;points=[[0,0,0],[0.25,0,0],[0.5,0,0],[0.75,0,0],[1,0,0],[0,1,0],[0.25,1,0],[0.5,1,0],[0.75,1,0],[1,1,0],[0,0.25,0],[0,0.5,0],[0,0.75,0],[1,0.25,0],[1,0.5,0],[1,0.75,0]];outlineConnect=0;fontColor=#232F3E;fillColor=#7AA116;strokeColor=#ffffff;dashed=0;verticalLabelPosition=bottom;verticalAlign=top;align=center;html=1;fontSize=12;fontStyle=0;aspect=fixed;shape=mxgraph.aws4.resourceIcon;resIcon=mxgraph.aws4.s3;" vertex="1" parent="2ldw7R9c0aOPwso9EmDh-3">
          <mxGeometry x="1000" y="430" width="78" height="78" as="geometry" />
        </mxCell>
        <mxCell id="2ldw7R9c0aOPwso9EmDh-52" value="Parse Trends Lambda" style="sketch=0;points=[[0,0,0],[0.25,0,0],[0.5,0,0],[0.75,0,0],[1,0,0],[0,1,0],[0.25,1,0],[0.5,1,0],[0.75,1,0],[1,1,0],[0,0.25,0],[0,0.5,0],[0,0.75,0],[1,0.25,0],[1,0.5,0],[1,0.75,0]];outlineConnect=0;fontColor=#232F3E;fillColor=#ED7100;strokeColor=#ffffff;dashed=0;verticalLabelPosition=bottom;verticalAlign=top;align=center;html=1;fontSize=12;fontStyle=0;aspect=fixed;shape=mxgraph.aws4.resourceIcon;resIcon=mxgraph.aws4.lambda;" vertex="1" parent="2ldw7R9c0aOPwso9EmDh-3">
          <mxGeometry x="1000" y="295.25" width="78" height="78" as="geometry" />
        </mxCell>
        <mxCell id="2ldw7R9c0aOPwso9EmDh-54" style="edgeStyle=orthogonalEdgeStyle;rounded=0;orthogonalLoop=1;jettySize=auto;html=1;exitX=0.5;exitY=1;exitDx=0;exitDy=0;exitPerimeter=0;entryX=0.5;entryY=0;entryDx=0;entryDy=0;entryPerimeter=0;" edge="1" parent="2ldw7R9c0aOPwso9EmDh-3" source="2ldw7R9c0aOPwso9EmDh-52" target="2ldw7R9c0aOPwso9EmDh-51">
          <mxGeometry relative="1" as="geometry" />
        </mxCell>
        <mxCell id="2ldw7R9c0aOPwso9EmDh-55" value="Trend Researcher Agent" style="sketch=0;points=[[0,0,0],[0.25,0,0],[0.5,0,0],[0.75,0,0],[1,0,0],[0,1,0],[0.25,1,0],[0.5,1,0],[0.75,1,0],[1,1,0],[0,0.25,0],[0,0.5,0],[0,0.75,0],[1,0.25,0],[1,0.5,0],[1,0.75,0]];outlineConnect=0;fontColor=#232F3E;fillColor=#01A88D;strokeColor=#ffffff;dashed=0;verticalLabelPosition=bottom;verticalAlign=top;align=center;html=1;fontSize=12;fontStyle=0;aspect=fixed;shape=mxgraph.aws4.resourceIcon;resIcon=mxgraph.aws4.bedrock;" vertex="1" parent="2ldw7R9c0aOPwso9EmDh-3">
          <mxGeometry x="320" y="430" width="78" height="78" as="geometry" />
        </mxCell>
        <mxCell id="2ldw7R9c0aOPwso9EmDh-57" style="edgeStyle=orthogonalEdgeStyle;rounded=0;orthogonalLoop=1;jettySize=auto;html=1;exitX=1;exitY=0.5;exitDx=0;exitDy=0;exitPerimeter=0;entryX=0;entryY=0.5;entryDx=0;entryDy=0;entryPerimeter=0;" edge="1" parent="2ldw7R9c0aOPwso9EmDh-3" source="2ldw7R9c0aOPwso9EmDh-55" target="2ldw7R9c0aOPwso9EmDh-45">
          <mxGeometry relative="1" as="geometry" />
        </mxCell>
        <mxCell id="2ldw7R9c0aOPwso9EmDh-61" value="" style="edgeStyle=orthogonalEdgeStyle;html=1;endArrow=block;elbow=vertical;startArrow=none;endFill=1;strokeColor=#545B64;rounded=0;entryX=0;entryY=0.5;entryDx=0;entryDy=0;entryPerimeter=0;exitX=1;exitY=0.25;exitDx=0;exitDy=0;exitPerimeter=0;" edge="1" parent="2ldw7R9c0aOPwso9EmDh-3" source="2ldw7R9c0aOPwso9EmDh-4" target="2ldw7R9c0aOPwso9EmDh-55">
          <mxGeometry width="100" relative="1" as="geometry">
            <mxPoint x="208" y="364" as="sourcePoint" />
            <mxPoint x="330" y="499" as="targetPoint" />
            <Array as="points">
              <mxPoint x="198" y="320" />
              <mxPoint x="290" y="320" />
              <mxPoint x="290" y="469" />
            </Array>
          </mxGeometry>
        </mxCell>
        <mxCell id="2ldw7R9c0aOPwso9EmDh-66" style="edgeStyle=orthogonalEdgeStyle;rounded=0;orthogonalLoop=1;jettySize=auto;html=1;exitX=0.5;exitY=1;exitDx=0;exitDy=0;exitPerimeter=0;entryX=0.5;entryY=0;entryDx=0;entryDy=0;entryPerimeter=0;" edge="1" parent="2ldw7R9c0aOPwso9EmDh-3" source="2ldw7R9c0aOPwso9EmDh-8" target="2ldw7R9c0aOPwso9EmDh-71">
          <mxGeometry relative="1" as="geometry">
            <mxPoint x="758" y="227" as="targetPoint" />
          </mxGeometry>
        </mxCell>
        <mxCell id="2ldw7R9c0aOPwso9EmDh-74" style="edgeStyle=orthogonalEdgeStyle;rounded=0;orthogonalLoop=1;jettySize=auto;html=1;exitX=0;exitY=0.5;exitDx=0;exitDy=0;exitPerimeter=0;" edge="1" parent="2ldw7R9c0aOPwso9EmDh-3" source="2ldw7R9c0aOPwso9EmDh-64" target="2ldw7R9c0aOPwso9EmDh-73">
          <mxGeometry relative="1" as="geometry" />
        </mxCell>
        <mxCell id="2ldw7R9c0aOPwso9EmDh-64" value="Feedback Scoring Agent" style="sketch=0;points=[[0,0,0],[0.25,0,0],[0.5,0,0],[0.75,0,0],[1,0,0],[0,1,0],[0.25,1,0],[0.5,1,0],[0.75,1,0],[1,1,0],[0,0.25,0],[0,0.5,0],[0,0.75,0],[1,0.25,0],[1,0.5,0],[1,0.75,0]];outlineConnect=0;fontColor=#232F3E;fillColor=#01A88D;strokeColor=#ffffff;dashed=0;verticalLabelPosition=bottom;verticalAlign=top;align=center;html=1;fontSize=12;fontStyle=0;aspect=fixed;shape=mxgraph.aws4.resourceIcon;resIcon=mxgraph.aws4.bedrock;" vertex="1" parent="2ldw7R9c0aOPwso9EmDh-3">
          <mxGeometry x="680" y="210" width="78" height="78" as="geometry" />
        </mxCell>
        <mxCell id="2ldw7R9c0aOPwso9EmDh-67" style="edgeStyle=orthogonalEdgeStyle;rounded=0;orthogonalLoop=1;jettySize=auto;html=1;exitX=0;exitY=0.5;exitDx=0;exitDy=0;exitPerimeter=0;entryX=1;entryY=0.5;entryDx=0;entryDy=0;entryPerimeter=0;" edge="1" parent="2ldw7R9c0aOPwso9EmDh-3" source="2ldw7R9c0aOPwso9EmDh-71" target="2ldw7R9c0aOPwso9EmDh-64">
          <mxGeometry relative="1" as="geometry">
            <mxPoint x="719" y="188" as="sourcePoint" />
          </mxGeometry>
        </mxCell>
        <mxCell id="2ldw7R9c0aOPwso9EmDh-71" value="Object Created Notification" style="sketch=0;points=[[0,0,0],[0.25,0,0],[0.5,0,0],[0.75,0,0],[1,0,0],[0,1,0],[0.25,1,0],[0.5,1,0],[0.75,1,0],[1,1,0],[0,0.25,0],[0,0.5,0],[0,0.75,0],[1,0.25,0],[1,0.5,0],[1,0.75,0]];outlineConnect=0;fontColor=#232F3E;fillColor=#E7157B;strokeColor=#ffffff;dashed=0;verticalLabelPosition=bottom;verticalAlign=top;align=center;html=1;fontSize=12;fontStyle=0;aspect=fixed;shape=mxgraph.aws4.resourceIcon;resIcon=mxgraph.aws4.eventbridge;" vertex="1" parent="2ldw7R9c0aOPwso9EmDh-3">
          <mxGeometry x="850" y="210" width="78" height="78" as="geometry" />
        </mxCell>
        <mxCell id="2ldw7R9c0aOPwso9EmDh-73" value="Feedback Scores" style="sketch=0;points=[[0,0,0],[0.25,0,0],[0.5,0,0],[0.75,0,0],[1,0,0],[0,1,0],[0.25,1,0],[0.5,1,0],[0.75,1,0],[1,1,0],[0,0.25,0],[0,0.5,0],[0,0.75,0],[1,0.25,0],[1,0.5,0],[1,0.75,0]];outlineConnect=0;fontColor=#232F3E;fillColor=#7AA116;strokeColor=#ffffff;dashed=0;verticalLabelPosition=bottom;verticalAlign=top;align=center;html=1;fontSize=12;fontStyle=0;aspect=fixed;shape=mxgraph.aws4.resourceIcon;resIcon=mxgraph.aws4.s3;" vertex="1" parent="2ldw7R9c0aOPwso9EmDh-3">
          <mxGeometry x="536" y="210" width="78" height="78" as="geometry" />
        </mxCell>
        <mxCell id="2ldw7R9c0aOPwso9EmDh-75" style="edgeStyle=orthogonalEdgeStyle;rounded=0;orthogonalLoop=1;jettySize=auto;html=1;exitX=1;exitY=0.75;exitDx=0;exitDy=0;exitPerimeter=0;entryX=0;entryY=0.5;entryDx=0;entryDy=0;entryPerimeter=0;" edge="1" parent="2ldw7R9c0aOPwso9EmDh-3" source="2ldw7R9c0aOPwso9EmDh-9" target="2ldw7R9c0aOPwso9EmDh-73">
          <mxGeometry relative="1" as="geometry" />
        </mxCell>
        <mxCell id="2ldw7R9c0aOPwso9EmDh-11" value="Streamlit GUI" style="outlineConnect=0;dashed=0;verticalLabelPosition=bottom;verticalAlign=top;align=center;html=1;shape=mxgraph.aws3.workspaces;fillColor=#D16A28;gradientColor=#F58435;gradientDirection=north;" vertex="1" parent="1">
          <mxGeometry x="-490" y="677" width="82.5" height="94.5" as="geometry" />
        </mxCell>
        <mxCell id="2ldw7R9c0aOPwso9EmDh-12" value="Product Manager" style="sketch=0;outlineConnect=0;fontColor=#232F3E;gradientColor=none;fillColor=#232F3D;strokeColor=none;dashed=0;verticalLabelPosition=bottom;verticalAlign=top;align=center;html=1;fontSize=12;fontStyle=0;aspect=fixed;pointerEvents=1;shape=mxgraph.aws4.user;" vertex="1" parent="1">
          <mxGeometry x="-487.5" y="500" width="78" height="78" as="geometry" />
        </mxCell>
        <mxCell id="2ldw7R9c0aOPwso9EmDh-13" value="" style="edgeStyle=orthogonalEdgeStyle;html=1;endArrow=block;elbow=vertical;startArrow=none;endFill=1;strokeColor=#545B64;rounded=0;entryX=0.5;entryY=0;entryDx=0;entryDy=0;entryPerimeter=0;" edge="1" parent="1" source="2ldw7R9c0aOPwso9EmDh-12" target="2ldw7R9c0aOPwso9EmDh-11">
          <mxGeometry width="100" relative="1" as="geometry">
            <mxPoint x="-450" y="550" as="sourcePoint" />
            <mxPoint x="-350" y="550" as="targetPoint" />
          </mxGeometry>
        </mxCell>
        <mxCell id="2ldw7R9c0aOPwso9EmDh-14" value="" style="edgeStyle=orthogonalEdgeStyle;html=1;endArrow=block;elbow=vertical;startArrow=none;endFill=1;strokeColor=#545B64;rounded=0;entryX=0;entryY=0.5;entryDx=0;entryDy=0;entryPerimeter=0;exitX=1;exitY=0.5;exitDx=0;exitDy=0;exitPerimeter=0;" edge="1" parent="1" source="2ldw7R9c0aOPwso9EmDh-11" target="2ldw7R9c0aOPwso9EmDh-4">
          <mxGeometry width="100" relative="1" as="geometry">
            <mxPoint x="-429" y="448" as="sourcePoint" />
            <mxPoint x="-429" y="547" as="targetPoint" />
          </mxGeometry>
        </mxCell>
        <mxCell id="2ldw7R9c0aOPwso9EmDh-17" value="Internet" style="fillColor=none;strokeColor=#5A6C86;dashed=1;verticalAlign=top;fontStyle=0;fontColor=#5A6C86;whiteSpace=wrap;html=1;" vertex="1" parent="1">
          <mxGeometry x="1010" y="304.25" width="200" height="840" as="geometry" />
        </mxCell>
        <mxCell id="2ldw7R9c0aOPwso9EmDh-27" value="Confluence" style="shape=image;verticalLabelPosition=bottom;labelBackgroundColor=default;verticalAlign=top;aspect=fixed;imageAspect=0;image=https://img.icons8.com/color/512/atlassian-confluence.png;" vertex="1" parent="1">
          <mxGeometry x="1047" y="1000" width="78" height="78" as="geometry" />
        </mxCell>
        <mxCell id="2ldw7R9c0aOPwso9EmDh-29" value="" style="edgeStyle=orthogonalEdgeStyle;html=1;endArrow=block;elbow=vertical;startArrow=none;endFill=1;strokeColor=#545B64;rounded=0;entryX=1;entryY=0.5;entryDx=0;entryDy=0;entryPerimeter=0;exitX=0;exitY=0.5;exitDx=0;exitDy=0;" edge="1" parent="1" source="2ldw7R9c0aOPwso9EmDh-27" target="2ldw7R9c0aOPwso9EmDh-26">
          <mxGeometry width="100" relative="1" as="geometry">
            <mxPoint x="208" y="669" as="sourcePoint" />
            <mxPoint x="330" y="669" as="targetPoint" />
          </mxGeometry>
        </mxCell>
        <mxCell id="2ldw7R9c0aOPwso9EmDh-40" value="Websites" style="sketch=0;outlineConnect=0;fontColor=#232F3E;gradientColor=none;fillColor=#232F3D;strokeColor=none;dashed=0;verticalLabelPosition=bottom;verticalAlign=top;align=center;html=1;fontSize=12;fontStyle=0;aspect=fixed;pointerEvents=1;shape=mxgraph.aws4.document;" vertex="1" parent="1">
          <mxGeometry x="1080" y="460" width="57" height="78" as="geometry" />
        </mxCell>
        <mxCell id="2ldw7R9c0aOPwso9EmDh-43" style="edgeStyle=orthogonalEdgeStyle;rounded=0;orthogonalLoop=1;jettySize=auto;html=1;exitX=1;exitY=0.5;exitDx=0;exitDy=0;exitPerimeter=0;" edge="1" parent="1" source="2ldw7R9c0aOPwso9EmDh-42" target="2ldw7R9c0aOPwso9EmDh-40">
          <mxGeometry relative="1" as="geometry" />
        </mxCell>
      </root>
    </mxGraphModel>
  </diagram>
</mxfile>
